<svg width="34" height="34" viewBox="0 0 34 34" fill="none" xmlns="http://www.w3.org/2000/svg">
<path opacity="0.8" fill-rule="evenodd" clip-rule="evenodd" d="M17.3337 26.35C22.4976 26.35 26.6837 22.1639 26.6837 17C26.6837 11.8361 22.4976 7.65 17.3337 7.65C12.1699 7.65 7.98374 11.8361 7.98374 17C7.98374 22.1639 12.1699 26.35 17.3337 26.35ZM17.3337 33.5C26.4464 33.5 33.8337 26.1127 33.8337 17C33.8337 7.8873 26.4464 0.5 17.3337 0.5C8.22104 0.5 0.83374 7.8873 0.83374 17C0.83374 26.1127 8.22104 33.5 17.3337 33.5Z" fill="#181D27"/>
<path opacity="0.6" d="M17.5233 17.3613C19.2416 15.643 22.0275 15.643 23.7458 17.3613L32.3018 25.9173C34.0201 27.6356 34.0201 30.4215 32.3018 32.1398C30.5835 33.8581 27.7975 33.8581 26.0792 32.1398L17.5233 23.5838C15.8049 21.8655 15.8049 19.0796 17.5233 17.3613Z" fill="#181D27"/>
<path d="M19.9255 25.9859L25.3595 31.4199C27.9659 29.9663 30.1374 27.8265 31.6296 25.2449L26.2402 19.8555C25.2935 22.81 22.9173 25.1248 19.9255 25.9859Z" fill="#181D27"/>
</svg>
