<svg width="30" height="34" viewBox="0 0 30 34" fill="none" xmlns="http://www.w3.org/2000/svg">
<path d="M25.9107 16.9994C23.2448 19.9779 19.3708 21.8524 15.059 21.8524C10.7471 21.8524 6.87309 19.9779 4.20728 16.9994C6.8731 14.0209 10.7471 12.1465 15.059 12.1465C19.3708 12.1465 23.2448 14.0209 25.9107 16.9994Z" fill="#181D27"/>
<path opacity="0.6" fill-rule="evenodd" clip-rule="evenodd" d="M0.500244 26.7063C0.500244 18.6657 7.01845 12.1475 15.0591 12.1475C10.7472 12.1475 6.87322 14.0219 4.2074 17.0004C6.87322 19.9789 10.7473 21.8533 15.0591 21.8533C19.3709 21.8533 23.2449 19.9789 25.9108 17.0004C28.2161 19.5761 29.6179 22.9775 29.6179 26.7063V32.2063C29.6179 32.921 29.0385 33.5004 28.3238 33.5004H1.79436C1.07964 33.5004 0.500244 32.921 0.500244 32.2063V26.7063ZM25.9108 17.0004C25.9108 17.0004 25.9108 17.0004 25.9108 17.0004V17.0004Z" fill="#181D27"/>
<path opacity="0.8" fill-rule="evenodd" clip-rule="evenodd" d="M9.59822 20.7941C7.51942 19.9524 5.67925 18.6445 4.2074 17C6.87322 14.0215 10.7473 12.1471 15.0591 12.1471C19.3709 12.1471 23.2449 14.0215 25.9108 17C25.9108 17 25.9108 17 25.9108 17C28.2161 14.4243 29.6179 11.0229 29.6179 7.29412V1.79412C29.6179 1.0794 29.0385 0.500002 28.3238 0.500002L1.79436 0.5C1.07964 0.5 0.500245 1.0794 0.500245 1.79412L0.500244 7.29412C0.500243 13.4036 4.2634 18.6341 9.59822 20.7941Z" fill="#181D27"/>
</svg>
