<svg width="33" height="34" viewBox="0 0 33 34" fill="none" xmlns="http://www.w3.org/2000/svg">
<path d="M11.7868 24.0706C18.2959 24.0706 23.5725 18.7939 23.5725 12.2849C23.5725 11.5472 23.5048 10.8253 23.3751 10.1252C22.675 9.99551 21.9531 9.92773 21.2154 9.92773C14.7063 9.92773 9.42969 15.2044 9.42969 21.7134C9.42969 22.4511 9.49746 23.173 9.62713 23.8732C10.3273 24.0028 11.0491 24.0706 11.7868 24.0706Z" fill="#181D27"/>
<path opacity="0.8" fill-rule="evenodd" clip-rule="evenodd" d="M9.62601 23.874C4.14838 22.8596 0 18.0571 0 12.2857C0 5.77664 5.27664 0.5 11.7857 0.5C17.5571 0.5 22.3596 4.64838 23.374 10.126C22.6738 9.99635 21.952 9.92857 21.2143 9.92857C14.7052 9.92857 9.42857 15.2052 9.42857 21.7143C9.42857 22.452 9.49635 23.1738 9.62601 23.874Z" fill="#181D27"/>
<path opacity="0.6" fill-rule="evenodd" clip-rule="evenodd" d="M11.7867 24.0714C18.2957 24.0714 23.5724 18.7948 23.5724 12.2857C23.5724 11.548 23.5046 10.8261 23.3749 10.126C28.8526 11.1404 33.001 15.9429 33.001 21.7143C33.001 28.2233 27.7243 33.5 21.2152 33.5C15.4439 33.5 10.6414 29.3516 9.62695 23.874C10.3271 24.0036 11.049 24.0714 11.7867 24.0714Z" fill="#181D27"/>
</svg>
