<svg width="34" height="34" viewBox="0 0 34 34" fill="none" xmlns="http://www.w3.org/2000/svg">
<path opacity="0.8" d="M16.9165 0.5C7.80377 0.5 0.416504 7.8873 0.416504 17C0.416504 26.1127 7.80377 33.5 16.9165 33.5C25.0923 33.5 31.8792 27.5537 33.1884 19.75H33.07C31.8488 24.4944 27.542 28 22.4165 28C16.3414 28 11.4165 23.0751 11.4165 17C11.4165 10.9249 16.3414 6 22.4165 6C27.542 6 31.8488 9.50562 33.07 14.25H33.1884C31.8792 6.44629 25.0923 0.5 16.9165 0.5Z" fill="#181D27"/>
<path d="M0.416504 17C0.416504 7.8873 7.8038 0.5 16.9165 0.5C25.0922 0.5 31.8791 6.44629 33.1884 14.25H22.07C20.8488 9.50562 16.5421 6 11.4165 6C5.34137 6 0.416504 10.9249 0.416504 17Z" fill="#181D27"/>
<path d="M0.416504 17C0.416504 26.1127 7.8038 33.5 16.9165 33.5C25.0922 33.5 31.8791 27.5537 33.1884 19.75H22.07C20.8488 24.4944 16.5421 28 11.4165 28C5.34137 28 0.416504 23.0751 0.416504 17Z" fill="#181D27"/>
</svg>
