<svg width="33" height="34" viewBox="0 0 33 34" fill="none" xmlns="http://www.w3.org/2000/svg">
<path opacity="0.7" d="M9.95759 15.739C10.5743 13.4378 12.9397 11.0723 15.2409 10.4556L29.5876 6.61086C31.8888 5.99416 33.2544 7.35972 32.6377 9.66093L28.7929 24.0077C28.1762 26.3089 25.8108 28.6743 23.5096 29.291L9.16288 33.1358C6.86167 33.7525 5.49611 32.3869 6.11281 30.0857L9.95759 15.739Z" fill="#181D27"/>
<path d="M4.20563 9.98701C4.82233 7.6858 7.18776 5.32038 9.48896 4.70368L23.8357 0.858905C26.1369 0.242207 27.5025 1.60777 26.8858 3.90897L23.041 18.2557C22.4243 20.5569 20.0589 22.9223 17.7577 23.539L3.41093 27.3838C1.10972 28.0005 -0.255838 26.6349 0.36086 24.3337L4.20563 9.98701Z" fill="#181D27"/>
</svg>
